PathFileType	4	(X/Y/Z)	/tmp/tmpjnq7zxqp/Me/MarkerData/jogging03_segment_0.trc
DataRate	CameraRate	NumFrames	NumMarkers	Units	OrigDataRate	OrigDataStartFrame	OrigNumFrames
100.092	100.092	10	39	m	100.092	678	1086
Frame#	Time	C7			CLAV			LANK			LASI			LBHD			LELB			LFHD			LFIN			LFRM			LHEE			LKNE			LPSI			LSHO			LTHI			LTIB			LTOE			LUPA			LWRA			LWRB			RANK			RASI			RBAK			RBHD			RELB			RFHD			RFIN			RFRM			RHEE			RKNE			RPSI			RSHO			RTHI			RTIB			RTOE			RUPA			RWRA			RWRB			STRN			T10		
		X1	Y1	Z1	X2	Y2	Z2	X3	Y3	Z3	X4	Y4	Z4	X5	Y5	Z5	X6	Y6	Z6	X7	Y7	Z7	X8	Y8	Z8	X9	Y9	Z9	X10	Y10	Z10	X11	Y11	Z11	X12	Y12	Z12	X13	Y13	Z13	X14	Y14	Z14	X15	Y15	Z15	X16	Y16	Z16	X17	Y17	Z17	X18	Y18	Z18	X19	Y19	Z19	X20	Y20	Z20	X21	Y21	Z21	X22	Y22	Z22	X23	Y23	Z23	X24	Y24	Z24	X25	Y25	Z25	X26	Y26	Z26	X27	Y27	Z27	X28	Y28	Z28	X29	Y29	Z29	X30	Y30	Z30	X31	Y31	Z31	X32	Y32	Z32	X33	Y33	Z33	X34	Y34	Z34	X35	Y35	Z35	X36	Y36	Z36	X37	Y37	Z37	X38	Y38	Z38	X39	Y39	Z39

679	6.77376	-0.192176	1.41028	-0.0129852	-0.348533	1.32611	0.0442324	-0.327339	0.0890558	0.0669983	-0.237442	0.944245	0.148125	-0.250969	1.54908	0.100291	-0.072502	1.06813	0.247576	-0.36017	1.62287	0.0901409	-0.384655	1.01049	0.20282	-0.195692	0.983557	0.213054	-0.255688	0.0600481	0.0207749	-0.434768	0.471326	0.110809	-0.105972	0.958503	0.019269	-0.198555	1.37886	0.174807	-0.358355	0.643324	0.157169	-0.368795	0.227284	0.106683	-0.493651	0.0662828	-0.00318142	-0.139696	1.22697	0.25577	-0.286493	1.02335	0.167599	-0.288017	0.966112	0.210094	0.226093	0.277203	-0.111747	-0.259712	0.92537	-0.169282	-0.188898	1.28993	-0.14947	-0.257185	1.54171	-0.0478845	-0.364471	1.09694	-0.278046	-0.36383	1.6066	-0.039343	-0.493022	1.0074	0.0196045	-0.39223	1.03606	-0.220987	0.267641	0.332705	-0.0353034	-0.158114	0.428875	-0.156452	-0.118185	0.960404	-0.042534	-0.332431	1.4043	-0.143376	-0.255319	0.748749	-0.188602	-0.0264602	0.397906	-0.171131	0.219329	0.107095	-0.073277	-0.367612	1.18307	-0.247796	-0.412179	1.03377	-0.0577802	-0.452592	0.975536	-0.0752199	-0.373139	1.16418	0.0527425	-0.13497	1.18558	-0.0461093
680	6.78375	-0.191859	1.40496	-0.00984541	-0.350042	1.31735	0.0455267	-0.308558	0.089056	0.0671048	-0.232354	0.939034	0.148338	-0.251694	1.54298	0.102323	-0.0823097	1.05246	0.247467	-0.360889	1.61673	0.0922072	-0.395701	1.00871	0.199738	-0.208278	0.974214	0.209756	-0.236234	0.0604946	0.0209775	-0.436545	0.468604	0.115927	-0.102352	0.948351	0.0129794	-0.198807	1.36977	0.179746	-0.35957	0.642615	0.160053	-0.356649	0.227314	0.109595	-0.474869	0.0652809	-0.00265048	-0.145922	1.21297	0.257951	-0.297013	1.01844	0.164733	-0.301009	0.960174	0.205463	0.215742	0.280889	-0.111597	-0.258666	0.915658	-0.170462	-0.185694	1.28204	-0.146249	-0.25797	1.53572	-0.0457805	-0.354027	1.08738	-0.279583	-0.364562	1.60047	-0.0372647	-0.489905	0.986979	0.0100554	-0.381339	1.0251	-0.224802	0.256707	0.336683	-0.0348409	-0.172676	0.420425	-0.156263	-0.114573	0.94788	-0.0491685	-0.332847	1.3964	-0.144305	-0.260401	0.742074	-0.187613	-0.0407823	0.392073	-0.170571	0.212831	0.110615	-0.0750603	-0.360125	1.17345	-0.247881	-0.406313	1.01697	-0.0628405	-0.444938	0.958726	-0.0835236	-0.373143	1.15271	0.053537	-0.134968	1.17363	-0.0442303
681	6.79374	-0.193882	1.4011	-0.00687379	-0.350794	1.30995	0.046457	-0.289445	0.0891889	0.0668403	-0.227874	0.934885	0.148481	-0.252394	1.53694	0.104199	-0.0932274	1.03789	0.247377	-0.361718	1.61049	0.0940857	-0.406954	1.00745	0.195879	-0.221539	0.965785	0.206258	-0.21646	0.0610985	0.0210729	-0.433741	0.462829	0.122263	-0.0996853	0.939121	0.00641417	-0.199635	1.36172	0.184504	-0.356885	0.638889	0.163271	-0.343562	0.224427	0.11119	-0.455623	0.064447	-0.00268709	-0.153384	1.20051	0.259619	-0.307902	1.01439	0.161354	-0.314376	0.955152	0.200396	0.20368	0.28386	-0.111551	-0.25718	0.907246	-0.171439	-0.182054	1.27698	-0.143263	-0.258498	1.52999	-0.0439712	-0.342143	1.07951	-0.281222	-0.365273	1.5944	-0.0353841	-0.486101	0.968051	-0.000725639	-0.369546	1.01574	-0.228984	0.244738	0.339891	-0.0346694	-0.187871	0.413273	-0.156242	-0.111099	0.936758	-0.0572435	-0.333449	1.38861	-0.144706	-0.264195	0.73737	-0.186798	-0.0559726	0.386111	-0.170022	0.204093	0.113537	-0.0763409	-0.351382	1.16587	-0.248842	-0.399743	1.00151	-0.0685978	-0.436355	0.943282	-0.0926031	-0.372773	1.14233	0.0541827	-0.133379	1.1656	-0.0414267
682	6.80373	-0.197338	1.39779	-0.00402947	-0.350505	1.30347	0.046841	-0.270195	0.0894314	0.0665386	-0.224661	0.930972	0.148731	-0.253226	1.53107	0.105872	-0.105221	1.02524	0.247407	-0.362626	1.60445	0.0957553	-0.418414	1.00715	0.191099	-0.235259	0.958698	0.202636	-0.196974	0.0615893	0.0209628	-0.427479	0.454964	0.128264	-0.0979682	0.931463	0.00227818	-0.201594	1.3553	0.187841	-0.351165	0.631868	0.166234	-0.329774	0.220251	0.112176	-0.436194	0.0638662	-0.00265012	-0.161616	1.1898	0.261009	-0.318998	1.01143	0.157468	-0.328045	0.951491	0.19505	0.190175	0.286155	-0.111488	-0.255942	0.900669	-0.171808	-0.17932	1.27391	-0.14102	-0.258963	1.52444	-0.0423225	-0.328908	1.07388	-0.282945	-0.365966	1.5886	-0.0337407	-0.481321	0.951291	-0.0123746	-0.356848	1.00814	-0.233559	0.231743	0.342245	-0.0348076	-0.203368	0.406527	-0.155946	-0.108556	0.927418	-0.0626131	-0.334037	1.38137	-0.143874	-0.266958	0.732703	-0.186534	-0.0717434	0.380418	-0.169451	0.193038	0.115781	-0.0774326	-0.341527	1.1597	-0.250423	-0.392526	0.987974	-0.0750649	-0.427012	0.929817	-0.102278	-0.371955	1.13407	0.0545622	-0.13015	1.16231	-0.037838
683	6.81372	-0.19952	1.39456	-0.00115521	-0.349692	1.29783	0.0467469	-0.251056	0.0895935	0.0664069	-0.22226	0.927223	0.148978	-0.254163	1.52562	0.107406	-0.11811	1.01484	0.247686	-0.363631	1.59891	0.0971357	-0.43007	1.00839	0.185459	-0.249278	0.953305	0.198934	-0.177665	0.0620713	0.0206982	-0.418763	0.446085	0.132849	-0.0968085	0.926162	0.00125692	-0.204356	1.35017	0.189443	-0.344287	0.622966	0.168895	-0.315232	0.21544	0.11285	-0.416679	0.0632377	-0.00252425	-0.169935	1.18075	0.262281	-0.330078	1.00983	0.153546	-0.341973	0.949497	0.189667	0.175551	0.287604	-0.111593	-0.255146	0.89603	-0.171515	-0.17802	1.27134	-0.139461	-0.259462	1.51931	-0.0408483	-0.314438	1.0701	-0.284937	-0.366623	1.58342	-0.0323992	-0.475464	0.937256	-0.02458	-0.342965	1.00215	-0.238438	0.217831	0.343598	-0.0352149	-0.219051	0.400227	-0.155405	-0.106706	0.921106	-0.0631902	-0.333736	1.37523	-0.142468	-0.269097	0.727977	-0.186519	-0.0878795	0.375529	-0.168893	0.179702	0.117226	-0.0785469	-0.33068	1.15467	-0.252283	-0.384782	0.977006	-0.0820529	-0.416965	0.918889	-0.112343	-0.370814	1.12824	0.0545022	-0.126518	1.16244	-0.0336944
684	6.82371	-0.198902	1.39107	0.00143893	-0.349126	1.29329	0.0464163	-0.232072	0.0896716	0.0660647	-0.220564	0.923577	0.149476	-0.25519	1.52096	0.108684	-0.131606	1.00629	0.248239	-0.364737	1.59414	0.0982239	-0.441615	1.01143	0.178854	-0.263597	0.949623	0.195447	-0.158183	0.0626528	0.0203939	-0.4095	0.437327	0.135678	-0.0955683	0.923195	0.00220285	-0.207115	1.34589	0.190425	-0.336919	0.61359	0.170957	-0.300437	0.210896	0.113236	-0.397201	0.0627455	-0.0024749	-0.178263	1.17318	0.263565	-0.340954	1.00976	0.149615	-0.355991	0.949366	0.184283	0.160128	0.288156	-0.11187	-0.254434	0.893007	-0.170966	-0.176626	1.26883	-0.138084	-0.259918	1.51502	-0.0396404	-0.298856	1.06751	-0.287454	-0.367211	1.57906	-0.0313736	-0.468521	0.926374	-0.0370725	-0.327694	0.997742	-0.243434	0.20333	0.343809	-0.0357373	-0.234829	0.395258	-0.15488	-0.10477	0.918125	-0.061147	-0.331907	1.37055	-0.141539	-0.270949	0.724195	-0.186301	-0.104298	0.371809	-0.168436	0.164217	0.117737	-0.0797065	-0.318817	1.15108	-0.254434	-0.376361	0.968861	-0.0895001	-0.405999	0.910755	-0.122534	-0.369468	1.12429	0.0539555	-0.123163	1.16356	-0.0292851
685	6.8337	-0.19635	1.38701	0.00308019	-0.349009	1.28987	0.0460016	-0.212863	0.0900342	0.065848	-0.219532	0.920067	0.150348	-0.2562	1.51737	0.109682	-0.145326	0.99902	0.249107	-0.36594	1.59021	0.0989887	-0.452691	1.01641	0.17141	-0.277939	0.947735	0.192176	-0.138606	0.0633638	0.0201049	-0.401304	0.429553	0.136771	-0.0937096	0.922094	0.00433713	-0.209315	1.3424	0.192012	-0.329058	0.604998	0.172299	-0.285826	0.207862	0.113338	-0.377671	0.062397	-0.00252045	-0.186678	1.1672	0.26489	-0.351434	1.01129	0.145246	-0.369702	0.951193	0.178661	0.14408	0.28778	-0.112228	-0.253251	0.891399	-0.170208	-0.173079	1.26682	-0.136331	-0.260214	1.51187	-0.0386973	-0.282448	1.0663	-0.29033	-0.367716	1.5756	-0.0306356	-0.460603	0.91863	-0.0495956	-0.311506	0.995212	-0.248354	0.188646	0.342662	-0.0362878	-0.250529	0.392368	-0.154604	-0.102749	0.917389	-0.0589315	-0.32868	1.36729	-0.141599	-0.272716	0.722151	-0.18599	-0.120793	0.369517	-0.168089	0.146595	0.117281	-0.0809348	-0.305883	1.14918	-0.256827	-0.366967	0.963329	-0.0972205	-0.39421	0.905418	-0.132614	-0.367992	1.1215	0.0529691	-0.120328	1.16385	-0.0248898
686	6.84369	-0.193171	1.38295	0.0037141	-0.349035	1.28746	0.0453941	-0.19361	0.0905701	0.0656795	-0.218678	0.916949	0.151451	-0.257127	1.51496	0.110464	-0.159306	0.993083	0.250243	-0.367226	1.58716	0.0994299	-0.463041	1.02335	0.163356	-0.292021	0.947722	0.189118	-0.118929	0.0641526	0.0198883	-0.394095	0.423345	0.137002	-0.0920479	0.92195	0.00715026	-0.210937	1.33963	0.193842	-0.320961	0.599002	0.173379	-0.271104	0.206073	0.113485	-0.358061	0.0621767	-0.00254582	-0.195305	1.16289	0.26623	-0.361021	1.01433	0.139973	-0.382979	0.954983	0.172999	0.12759	0.286484	-0.112605	-0.251495	0.89097	-0.169202	-0.167808	1.26521	-0.133756	-0.260282	1.50995	-0.0379827	-0.265626	1.067	-0.293226	-0.368184	1.57308	-0.0302227	-0.451969	0.913571	-0.0620772	-0.294862	0.994744	-0.253044	0.174141	0.339953	-0.0369528	-0.265847	0.391777	-0.154481	-0.100979	0.917129	-0.0563813	-0.32437	1.36538	-0.142643	-0.274465	0.721629	-0.185629	-0.137163	0.368745	-0.167813	0.126955	0.115801	-0.0822838	-0.29217	1.14915	-0.259556	-0.356909	0.960355	-0.105043	-0.381732	0.902638	-0.142314	-0.366551	1.11956	0.0514974	-0.118517	1.16256	-0.02075
687	6.85368	-0.190221	1.38023	0.00397741	-0.3489	1.28633	0.0442972	-0.174496	0.0912092	0.0655579	-0.217907	0.91459	0.152612	-0.257959	1.51377	0.111037	-0.173515	0.98884	0.251625	-0.368589	1.58506	0.0995549	-0.472468	1.03205	0.154942	-0.305652	0.94955	0.186251	-0.099366	0.0650467	0.0197367	-0.386201	0.41898	0.137573	-0.0910134	0.922236	0.00981949	-0.212438	1.338	0.195234	-0.313486	0.596512	0.174086	-0.255968	0.204883	0.11369	-0.338487	0.0620422	-0.00252961	-0.204135	1.16023	0.267513	-0.369382	1.01868	0.134238	-0.395621	0.960542	0.167109	0.110727	0.284225	-0.112953	-0.249348	0.891384	-0.16815	-0.161786	1.26424	-0.130612	-0.260141	1.50932	-0.0374563	-0.248679	1.06969	-0.295887	-0.368576	1.57156	-0.0301372	-0.442633	0.910992	-0.0743372	-0.278206	0.99635	-0.257443	0.15991	0.335785	-0.0373987	-0.280615	0.39329	-0.154405	-0.0997896	0.916597	-0.0533455	-0.319178	1.36477	-0.144307	-0.276412	0.722357	-0.185056	-0.153167	0.369441	-0.167555	0.105372	0.113385	-0.0836629	-0.277977	1.15093	-0.262516	-0.346566	0.959753	-0.112756	-0.368699	0.902032	-0.151489	-0.365174	1.11868	0.0493954	-0.117436	1.16002	-0.0171584
688	6.86367	-0.188387	1.37979	0.00486256	-0.348474	1.28662	0.0424668	-0.155449	0.0920427	0.0653863	-0.216892	0.913282	0.15368	-0.258737	1.51379	0.111404	-0.187805	0.986547	0.253214	-0.369939	1.58406	0.0993821	-0.480835	1.04221	0.146333	-0.31874	0.952996	0.183446	-0.0799312	0.0659613	0.0195577	-0.376164	0.415838	0.138776	-0.0899225	0.923148	0.0116868	-0.214378	1.33767	0.196222	-0.306804	0.595385	0.174592	-0.240353	0.20402	0.113718	-0.318931	0.0619518	-0.00253519	-0.213181	1.15919	0.269003	-0.377142	1.02443	0.128842	-0.407464	0.967669	0.161011	0.0936657	0.280971	-0.113197	-0.24704	0.892475	-0.167205	-0.155618	1.26421	-0.127268	-0.259826	1.50993	-0.0371218	-0.231809	1.07408	-0.298093	-0.368858	1.57111	-0.0303335	-0.432888	0.910419	-0.0863794	-0.261956	0.999915	-0.261475	0.145832	0.330032	-0.0376737	-0.294979	0.396567	-0.154201	-0.0980307	0.916547	-0.0509903	-0.313398	1.3654	-0.146144	-0.278674	0.724272	-0.184091	-0.168678	0.371405	-0.167176	0.0816865	0.110443	-0.0846273	-0.263412	1.15441	-0.26535	-0.336058	0.961147	-0.120287	-0.355223	0.903219	-0.160098	-0.364047	1.11906	0.0466196	-0.116818	1.15705	-0.0142762
